module.exports = "/fonts/jvbpd-icon1.svg?f40767e5d477c7654748561c8b3a1871"; 1.1//EN" "http://www.w3.org/Graphics/SVG/1.1/DTD/svg11.dtd" >
<svg xmlns="http://www.w3.org/2000/svg">
<metadata>Generated by IcoMoon</metadata>
<defs>
<font id="Javothemes-Icons" horiz-adv-x="1024">
<font-face units-per-em="1024" ascent="960" descent="-64" />
<missing-glyph horiz-adv-x="1024" />
<glyph unicode="&#x20;" horiz-adv-x="512" d="" />
<glyph unicode="&#xe900;" glyph-name="javothemes-addition" d="M928.896-38.4h-833.818c-38.298 0-69.478 31.155-69.478 69.504v833.818c0 38.298 31.181 69.478 69.478 69.478h833.818c38.349 0 69.504-31.181 69.504-69.478v-833.818c0-38.349-31.155-69.504-69.504-69.504zM118.246 54.246h787.507v787.507h-787.507v-787.507zM512 216.371c-25.574 0-46.336 20.736-46.336 46.336v382.157c0 25.574 20.762 46.336 46.336 46.336s46.336-20.762 46.336-46.336v-382.182c0-25.574-20.762-46.31-46.336-46.31zM697.293 401.664h-370.586c-25.574 0-46.336 20.762-46.336 46.336s20.762 46.336 46.336 46.336h370.611c25.6 0 46.336-20.762 46.336-46.336s-20.762-46.336-46.362-46.336z" />
<glyph unicode="&#xe901;" glyph-name="javothemes-arrow-left" d="M70.272 405.453c-9.958 0-19.891 3.712-27.597 11.162-15.77 15.232-16.205 40.371-0.973 56.141l329.011 340.326c15.232 15.77 40.371 16.179 56.141 0.947 15.744-15.232 16.179-40.371 0.947-56.141l-328.986-340.326c-7.782-8.064-18.176-12.109-28.544-12.109zM958.694 408.294h-893.389c-21.939 0-39.706 17.792-39.706 39.706s17.766 39.706 39.706 39.706h893.389c21.939 0 39.706-17.792 39.706-39.706s-17.766-39.706-39.706-39.706zM398.618 70.81c-10.291 0-20.582 3.942-28.339 11.878l-328.346 334.643c-15.36 15.667-15.104 40.806 0.538 56.166 15.667 15.36 40.781 15.104 56.166-0.512l328.346-334.669c15.36-15.667 15.104-40.806-0.538-56.141-7.757-7.629-17.792-11.366-27.827-11.366z" />
<glyph unicode="&#xe902;" glyph-name="javothemes-arrow-right" d="M960.256 406.042c-10.214 0-20.48 3.968-28.16 11.955l-324.352 335.539c-15.027 15.565-14.592 40.346 0.922 55.373s40.32 14.592 55.347-0.947l324.378-335.565c15.027-15.539 14.618-40.346-0.947-55.373-7.578-7.322-17.382-10.982-27.187-10.982zM945.587 408.858h-880.845c-21.606 0-39.142 17.536-39.142 39.142 0 21.632 17.536 39.142 39.142 39.142h880.819c21.632 0 39.142-17.536 39.142-39.142 0.026-21.606-17.51-39.142-39.117-39.142zM636.518 76.109c-9.907 0-19.789 3.712-27.418 11.213-15.437 15.13-15.667 39.91-0.538 55.347l323.738 329.984c15.155 15.411 39.962 15.642 55.373 0.512 15.437-15.155 15.667-39.936 0.538-55.398l-323.738-329.958c-7.68-7.808-17.792-11.699-27.955-11.699z" />
<glyph unicode="&#xe903;" glyph-name="javothemes-audio" d="M416.845 215.322h-169.216c-34.995 0-63.462 28.442-63.462 63.462v338.355c0 34.995 28.467 63.462 63.462 63.462h169.19c34.995 0 63.437-28.467 63.437-63.462v-338.355c0.026-35.021-28.442-63.462-63.411-63.462zM268.8 299.93h126.899v296.064h-126.899v-296.064zM797.491-38.477c-8.448 0-16.896 2.534-24.090 7.552l-338.406 234.931c-19.2 13.338-23.962 39.706-10.624 58.906 13.312 19.174 39.68 23.936 58.88 10.624l271.949-188.877v726.579l-271.923-188.826c-19.2-13.312-45.542-8.55-58.88 10.65-13.338 19.174-8.55 45.517 10.624 58.854l338.355 234.906c12.954 8.986 29.798 10.061 43.699 2.739 13.952-7.27 22.707-21.734 22.707-37.478v-888.269c0-15.744-8.755-30.208-22.707-37.478-6.118-3.226-12.826-4.813-19.584-4.813z" />
<glyph unicode="&#xe904;" glyph-name="javothemes-basket" d="M804.429-23.168h-585.011c-40.781 0-56.96 48.973-60.928 63.949l-130.765 487.066c-4.941 18.56-1.869 36.275 8.627 49.946 10.598 13.747 27.059 21.325 46.387 21.325h858.317c8.832 0 32.205 0 47.462-19.814 6.784-8.858 13.594-24.141 7.578-46.669l-130.739-496.128c-7.962-29.747-29.824-59.674-60.928-59.674zM237.491 57.114h550.221l121.702 461.722h-796.109l122.778-457.37c0.384-1.408 0.845-2.893 1.408-4.352zM156.262 538.726c-8.832 0-17.715 2.893-25.114 8.858-17.28 13.901-20.045 39.168-6.144 56.474l241.434 300.16c13.901 17.254 39.168 19.968 56.448 6.118 17.306-13.901 20.045-39.142 6.118-56.448l-241.408-300.16c-7.962-9.882-19.61-15.002-31.334-15.002zM863.514 538.854c-11.981 0-23.834 5.325-31.693 15.488l-233.344 299.904c-13.594 17.51-10.445 42.726 7.040 56.346 17.485 13.594 42.726 10.522 56.32-7.040l233.318-299.878c13.594-17.51 10.496-42.701-6.989-56.32-7.322-5.734-16.051-8.499-24.653-8.499zM331.238 177.587c-22.144 0-40.141 17.971-40.141 40.141v160.563c0 22.144 17.997 40.141 40.141 40.141 22.195 0 40.141-17.997 40.141-40.141v-160.563c0-22.17-17.946-40.141-40.141-40.141zM692.582 177.587c-22.144 0-40.141 17.971-40.141 40.141v160.563c0 22.144 17.997 40.141 40.141 40.141 22.195 0 40.141-17.997 40.141-40.141v-160.563c0-22.17-17.946-40.141-40.141-40.141zM511.898 177.587c-22.17 0-40.141 17.971-40.141 40.141v160.563c0 22.144 17.971 40.141 40.141 40.141 22.195 0 40.115-17.997 40.115-40.141v-160.563c0-22.17-17.92-40.141-40.115-40.141z" />
<glyph unicode="&#xe905;" glyph-name="javothemes-battery" d="M803.84 174.566h-715.136c-34.816 0-63.104 28.288-63.104 63.104v420.659c0 34.79 28.288 63.104 63.104 63.104h715.136c34.765 0 63.104-28.288 63.104-63.104v-420.659c0-34.816-28.314-63.104-63.104-63.104zM109.747 258.662h673.075v378.624h-673.075v-378.624zM914.278 288.512h-42.086c-46.387 0-84.122 37.76-84.122 84.122v126.208c0 46.413 37.76 84.147 84.122 84.147h42.086c46.413 0 84.122-37.76 84.122-84.147v-126.208c0-46.387-37.734-84.122-84.122-84.122zM872.192 498.816v-126.208h42.138l-0.077 126.208h-42.061zM646.067 204.211c-23.194 0-42.061 18.816-42.061 42.061v378.906c0 23.219 18.842 42.086 42.061 42.086 23.27 0 42.086-18.842 42.086-42.086v-378.931c0-23.219-18.816-42.035-42.086-42.035z" />
<glyph unicode="&#xe906;" glyph-name="javothemes-block" d="M396.186 494.336h-301.107c-38.298 0-69.478 31.155-69.478 69.478v301.107c0 38.298 31.181 69.478 69.478 69.478h301.107c38.323 0 69.478-31.181 69.478-69.478v-301.107c0-38.323-31.155-69.478-69.478-69.478zM118.246 586.982h254.771v254.771h-254.771v-254.771zM928.922 494.336h-301.133c-38.298 0-69.478 31.155-69.478 69.478v301.107c0.026 38.298 31.181 69.478 69.478 69.478h301.133c38.298 0 69.478-31.181 69.478-69.478v-301.107c0-38.323-31.181-69.478-69.478-69.478zM650.982 586.982h254.771v254.771h-254.771v-254.771zM396.186-38.4h-301.107c-38.298 0-69.478 31.181-69.478 69.478v301.133c0 38.298 31.181 69.478 69.478 69.478h301.107c38.323 0 69.478-31.181 69.478-69.478v-301.133c0-38.298-31.155-69.478-69.478-69.478zM118.246 54.246h254.771v254.771h-254.771v-254.771zM928.922-38.4h-301.133c-38.298 0-69.478 31.181-69.478 69.478v301.133c0 38.298 31.181 69.478 69.478 69.478h301.133c38.298 0 69.478-31.181 69.478-69.478v-301.133c0-38.298-31.181-69.478-69.478-69.478zM650.982 54.246h254.771v254.771h-254.771v-254.771z" />
<glyph unicode="&#xe907;" glyph-name="javothemes-block2" d="M928.87 494.31h-833.792c-38.323 0-69.478 31.181-69.478 69.478v277.939c0 38.323 31.155 69.478 69.478 69.478h833.792c38.349 0 69.504-31.155 69.504-69.478v-277.939c0-38.298-31.155-69.478-69.504-69.478zM118.246 586.957h787.507v231.629h-787.507v-231.629zM928.87-15.232h-833.792c-38.323 0-69.478 31.155-69.478 69.478v277.965c0 38.323 31.155 69.478 69.478 69.478h833.792c38.349 0 69.504-31.155 69.504-69.478v-277.939c0-38.349-31.155-69.504-69.504-69.504zM118.246 77.389h787.507v231.629h-787.507v-231.629z" />
<glyph unicode="&#xe908;" glyph-name="javothemes-book" d="M471.706 700.8h81.024v-607.718h-81.024v607.718zM522.368 4.403c-12.262 0-24.371 5.504-32.333 16.026-23.014 30.362-73.856 52.429-120.909 52.429h-302.592c-22.374 0-40.499 18.15-40.499 40.499v658.765c0 12.902 5.018 25.011 14.131 34.022 16.691 16.563 40.013 16.307 54.016 16.23h266.061c76.365 0 155.213-42.368 191.718-103.040 11.546-19.174 5.376-44.083-13.824-55.578-19.2-11.571-44.058-5.35-55.578 13.824-21.888 36.352-74.47 63.795-122.291 63.795h-253.21v-587.469h262.067c72.653 0 147.2-33.946 185.498-84.531 13.517-17.818 10.010-43.238-7.859-56.755-7.296-5.581-15.898-8.218-24.397-8.218zM522.291 4.403c-8.525 0-17.101 2.662-24.422 8.192-17.843 13.491-21.35 38.938-7.834 56.755 38.323 50.586 112.845 84.531 185.549 84.531h241.766v587.443h-233.011c-50.227 0-112.077-29.747-132.301-63.667-11.469-19.2-36.352-25.446-55.552-13.978s-25.472 36.352-14.003 55.552c40.013 66.97 133.914 103.117 201.856 103.117h265.882c6.682 0.205 22.426 0.307 35.405-12.646 12.954-12.928 12.826-28.698 12.749-35.405v-660.966c0-22.349-18.15-40.499-40.525-40.499h-282.266c-47.104 0-97.946-22.067-120.96-52.429-7.962-10.496-20.096-16-32.333-16z" />
<glyph unicode="&#xe909;" glyph-name="javothemes-calender" d="M928.896-38.4h-833.818c-38.298 0-69.478 31.155-69.478 69.504v741.171c0 38.323 31.181 69.478 69.478 69.478h833.818c38.349 0 69.504-31.155 69.504-69.478v-741.171c0-38.349-31.155-69.504-69.504-69.504zM118.246 54.246h787.507v694.861h-787.507v-694.861zM928.896 517.478h-833.818c-25.549 0-46.31 20.762-46.31 46.362 0 25.574 20.762 46.31 46.31 46.31h833.818c25.626 0 46.336-20.736 46.336-46.31 0-25.626-20.71-46.362-46.336-46.362zM280.397 656.461c-25.574 0-46.336 20.736-46.336 46.336v185.267c0 25.6 20.762 46.336 46.336 46.336 25.6 0 46.31-20.736 46.31-46.336v-185.293c0-25.574-20.71-46.31-46.31-46.31zM743.654 656.461c-25.574 0-46.362 20.736-46.362 46.336v185.267c0 25.6 20.787 46.336 46.362 46.336s46.31-20.736 46.31-46.336v-185.293c-0.026-25.574-20.736-46.31-46.31-46.31zM458.675 137.421c-12.032 0-24.064 4.685-33.152 13.952l-124.902 128.128c-17.869 18.304-17.51 47.642 0.819 65.51s47.693 17.51 65.51-0.819l93.082-95.462 212.582 200.371c18.611 17.536 47.898 16.666 65.485-1.92 17.536-18.637 16.666-47.949-1.92-65.485l-245.683-231.603c-8.986-8.474-20.403-12.672-31.821-12.672z" />
<glyph unicode="&#xe90a;" glyph-name="javothemes-camera" d="M512 199.347c-116.608 0-211.482 97.306-211.482 216.96 0 119.603 94.874 216.909 211.482 216.909s211.482-97.306 211.482-216.909c0-119.654-94.874-216.96-211.482-216.96zM512 548.634c-69.965 0-126.899-59.366-126.899-132.326 0-73.011 56.909-132.352 126.899-132.352s126.874 59.341 126.874 132.352c0 72.96-56.909 132.326-126.874 132.326zM956.109 46.208h-888.218c-23.347 0-42.291 18.944-42.291 42.291v592.128c0 23.373 18.944 42.291 42.291 42.291h209.126l51.738 103.501c7.168 14.336 21.811 23.373 37.837 23.373h296.064c16.026 0 30.669-9.062 37.862-23.373l51.738-103.501h203.827c23.373 0 42.317-18.918 42.317-42.291v-592.128c0-23.347-18.944-42.291-42.291-42.291zM110.182 130.79h803.61v507.546h-187.674c-16.026 0-30.669 9.037-37.862 23.373l-51.738 103.501h-243.763l-51.328-102.682c-0.922-1.894-1.946-3.712-3.098-5.402-3.405-5.146-7.808-9.344-12.826-12.416-5.094-3.174-10.854-5.299-17.075-6.042-2.022-0.256-4.070-0.358-6.118-0.333h-192.128v-507.546z" />
<glyph unicode="&#xe90b;" glyph-name="javothemes-check" d="M512.154-38.093c-268.109 0-486.246 218.138-486.246 486.246s218.138 486.246 486.246 486.246c268.109 0 486.246-218.138 486.246-486.246s-218.138-486.246-486.246-486.246zM512.154 843.469c-217.984 0-395.29-177.331-395.29-395.315 0-217.958 177.331-395.29 395.29-395.29 218.010 0 395.315 177.357 395.315 395.29 0 217.984-177.331 395.315-395.315 395.315zM454.707 287.872c-12.083 0-24.141 4.685-33.203 14.003l-125.107 128.282c-17.894 18.355-17.51 47.744 0.845 65.613 18.33 17.92 47.693 17.51 65.613-0.819l93.235-95.642 212.915 200.678c18.662 17.562 48.026 16.691 65.587-1.92 17.587-18.662 16.691-48-1.92-65.587l-246.093-231.987c-8.986-8.422-20.454-12.621-31.872-12.621z" />
<glyph unicode="&#xe90c;" glyph-name="javothemes-clip" d="M251.187 180.915c-24.013 0-43.469 19.456-43.469 43.443v391.245c0 24.013 19.456 43.469 43.469 43.469s43.469-19.456 43.469-43.469v-391.219c0-24.013-19.456-43.469-43.469-43.469zM512-37.274c-167.782 0-304.282 127.514-304.282 284.262 0 23.987 19.456 43.469 43.469 43.469s43.469-19.507 43.469-43.469c0-108.8 97.51-197.299 217.344-197.299 119.859 0 217.344 88.499 217.344 197.299 0 23.987 19.456 43.469 43.469 43.469s43.443-19.507 43.443-43.469c0.026-156.749-136.448-284.262-304.256-284.262zM772.813 180.915c-24.013 0-43.469 19.456-43.469 43.443v478.182c0 24.013 19.456 43.469 43.469 43.469s43.443-19.456 43.443-43.469v-478.157c0.026-24.013-19.43-43.469-43.443-43.469zM403.328 666.266c-24.013 0-43.469 19.456-43.469 43.469 0 119.68 106.65 224.666 228.224 224.666 125.824 0 228.198-93.389 228.198-208.179 0-24.013-19.456-43.469-43.443-43.469-24.013 0-43.469 19.43-43.469 43.469 0 66.867-63.386 121.242-141.286 121.242-80.87 0-141.286-72.704-141.286-137.728 0-24.013-19.456-43.469-43.469-43.469zM403.328 246.118c-24.013 0-43.469 19.456-43.469 43.469v391.219c0 24.013 19.456 43.469 43.469 43.469s43.469-19.456 43.469-43.469v-391.219c0-24.013-19.456-43.469-43.469-43.469zM512 137.446c-83.891 0-152.141 68.25-152.141 152.141 0 24.013 19.456 43.443 43.469 43.443s43.469-19.456 43.469-43.443c0-35.968 29.261-65.229 65.203-65.229s65.203 29.261 65.203 65.229c0 24.013 19.482 43.443 43.469 43.443s43.469-19.456 43.469-43.443c0-83.891-68.275-152.141-152.141-152.141zM620.672 246.118c-24.013 0-43.469 19.456-43.469 43.469v326.016c0 24.013 19.482 43.469 43.469 43.469s43.469-19.456 43.469-43.469v-325.99c0-24.038-19.456-43.494-43.469-43.494z" />
<glyph unicode="&#xe90d;" glyph-name="javothemes-clock" d="M512-38.4c-268.211 0-486.4 218.189-486.4 486.4s218.189 486.4 486.4 486.4c268.211 0 486.4-218.189 486.4-486.4s-218.189-486.4-486.4-486.4zM512 843.443c-218.010 0-395.418-177.408-395.418-395.443s177.408-395.443 395.418-395.443c218.035 0 395.469 177.434 395.469 395.443-0.026 218.035-177.434 395.443-395.469 395.443zM612.659 298.65c-9.165 0-18.432 2.662-26.496 8.32l-123.878 86.17c-12.467 8.704-19.891 22.938-19.891 38.118v213.965c0 25.651 20.813 46.413 46.413 46.413 25.651 0 46.413-20.787 46.413-46.413v-189.747l103.987-72.346c21.043-14.643 26.214-43.546 11.597-64.563-9.062-12.979-23.475-19.917-38.144-19.917z" />
<glyph unicode="&#xe90e;" glyph-name="javothemes-comment" d="M932.966 180.762h-295.424c-23.296 0-42.189 18.893-42.189 42.189s18.893 42.189 42.189 42.189h274.33v548.685h-801.869v-548.659h232.115c23.296 0 42.189-18.893 42.189-42.189s-18.893-42.189-42.189-42.189h-253.21c-37.299-0.026-63.309 37.427-63.309 71.066v598.733c0 20.864 10.522 32.922 16.819 38.221 16.947 14.362 36.659 11.034 44.083 9.856 0.896-0.154 1.869-0.384 2.867-0.461l843.597 0.026c0.538 0.051 1.536 0.282 2.406 0.435 7.398 1.203 27.162 4.557 44.083-9.83 6.298-5.325 16.819-17.357 16.819-38.221v-598.733c0-33.664-26.010-71.117-63.309-71.117zM489.805-3.866c-9.395 0-18.842 3.123-26.675 9.523-18.048 14.746-20.736 41.318-5.965 59.392l139.802 171.034c14.746 18.048 41.344 20.71 59.392 5.965s20.736-41.318 5.965-59.366l-139.802-171.059c-8.346-10.189-20.48-15.488-32.717-15.488zM489.856-3.866c-12.237 0-24.371 5.299-32.717 15.488l-139.802 171.059c-14.746 18.048-12.083 44.621 5.965 59.366 18.074 14.72 44.672 12.058 59.392-5.965l139.776-171.034c14.771-18.074 12.083-44.646-5.965-59.392-7.782-6.4-17.254-9.523-26.65-9.523z" />
<glyph unicode="&#xe90f;" glyph-name="javothemes-comment-o" d="M934.042 180.762h-295.45c-23.296 0-42.189 18.893-42.189 42.189s18.893 42.189 42.189 42.189h274.355v548.685h-801.894v-548.685h232.115c23.296 0 42.189-18.893 42.189-42.189s-18.893-42.189-42.189-42.189h-253.21c-37.299 0-63.309 37.478-63.309 71.091v598.733c0 20.89 10.522 32.922 16.794 38.246 16.998 14.336 36.685 10.982 44.109 9.83 0.896-0.179 1.843-0.384 2.867-0.486l843.622 0.051c0.512 0.051 1.51 0.256 2.406 0.435 7.398 1.229 27.162 4.557 44.058-9.83 6.298-5.325 16.845-17.357 16.845-38.246v-598.733c0-33.638-26.010-71.091-63.309-71.091zM490.854-3.866c-9.395 0-18.842 3.123-26.675 9.523-18.048 14.746-20.736 41.318-5.965 59.392l139.776 171.034c14.746 18.048 41.344 20.71 59.392 5.965s20.762-41.318 5.99-59.366l-139.827-171.059c-8.32-10.189-20.429-15.488-32.691-15.488zM490.906-3.866c-12.211 0-24.346 5.299-32.691 15.488l-139.802 171.059c-14.746 18.048-12.083 44.621 5.965 59.366 18.074 14.72 44.672 12.058 59.392-5.965l139.776-171.034c14.797-18.074 12.109-44.646-5.939-59.392-7.834-6.4-17.306-9.523-26.701-9.523zM765.747 678.042h-507.52c-16.512 0-29.85 13.338-29.85 29.824s13.338 29.875 29.85 29.875h507.52c16.512 0 29.85-13.389 29.85-29.875s-13.338-29.824-29.85-29.824zM765.747 513.818h-507.52c-16.512 0-29.85 13.363-29.85 29.875 0 16.486 13.338 29.824 29.85 29.824h507.52c16.512 0 29.85-13.338 29.85-29.824 0-16.512-13.338-29.875-29.85-29.875zM765.747 349.619h-507.52c-16.512 0-29.85 13.389-29.85 29.85 0 16.512 13.338 29.85 29.85 29.85h507.52c16.512 0 29.85-13.338 29.85-29.85 0-16.435-13.338-29.85-29.85-29.85z" />
<glyph unicode="&#xe910;" glyph-name="javothemes-danger" d="M512-38.528c-268.237 0-486.451 215.885-486.451 481.229 0 271.13 211.891 491.699 472.346 491.699 271.36 0 500.557-225.178 500.557-491.699 0-265.344-218.24-481.229-486.451-481.229zM497.894 849.792c-213.837 0-387.763-182.63-387.763-407.091 0-218.726 180.275-396.621 401.869-396.621s401.843 177.894 401.843 396.646c0 216.832-194.355 407.066-415.949 407.066zM512-27.955c-23.373 0-42.291 18.944-42.291 42.291v867.2c0 23.373 18.944 42.291 42.291 42.291s42.291-18.944 42.291-42.291v-867.174c0-23.373-18.918-42.317-42.291-42.317z" />
<glyph unicode="&#xe911;" glyph-name="javothemes-doc-envelope" d="M934.938 3.866h-845.952c-34.995 0-63.462 28.442-63.462 63.462v761.37c0 34.97 28.467 63.437 63.462 63.437h845.952c34.995 0 63.462-28.467 63.462-63.437v-761.37c0-34.995-28.467-63.462-63.462-63.462zM110.131 88.474h803.661v719.053h-803.661v-719.053zM956.083 220.646h-126.874c-139.93 0-253.798 96.589-253.798 215.347v34.611c0 118.733 113.869 215.322 253.798 215.322h126.874c23.373 0 42.317-18.918 42.317-42.291 0-23.347-18.944-42.291-42.317-42.291h-126.874c-93.338 0-169.19-58.65-169.19-130.714v-34.611c0-72.090 75.878-130.739 169.19-130.739h126.874c23.373 0 42.317-18.944 42.317-42.291s-18.944-42.342-42.317-42.342zM808.038 389.862c-34.97 0-63.462 28.442-63.462 63.462 0 34.97 28.493 63.462 63.462 63.462 34.944 0 63.462-28.467 63.462-63.462 0-35.021-28.493-63.462-63.462-63.462zM808.038 474.445c-11.648 0-21.12-9.498-21.12-21.146 0-11.674 9.472-21.146 21.12-21.146 11.674 0 21.146 9.472 21.146 21.146 0.026 11.648-9.446 21.146-21.146 21.146z" />
<glyph unicode="&#xe912;" glyph-name="javothemes-docs" d="M765.568-37.658h-633.933c-34.944 0-63.386 28.442-63.386 63.411v718.464c0 34.944 28.416 63.386 63.386 63.386h633.958c34.944 0 63.386-28.442 63.386-63.386v-718.464c-0.026-34.944-28.442-63.411-63.411-63.411zM152.781 46.874h591.667v676.198h-591.667v-676.198zM913.51 110.285c-23.347 0-42.266 18.893-42.266 42.266v697.318h-612.813c-23.347 0-42.266 18.918-42.266 42.266s18.918 42.266 42.266 42.266h632.73c13.619 0.077 33.587 0.077 49.485-15.795 6.912-6.912 15.13-19.098 15.13-38.067v-727.962c-0.026-23.398-18.944-42.291-42.266-42.291z" />
<glyph unicode="&#xe913;" glyph-name="javothemes-docs2" d="M512 147.866c-16.742 0-32.512 6.528-44.339 18.355l-330.88 330.88c-24.422 24.474-24.422 64.205 0 88.653l330.906 330.906c23.629 23.654 64.973 23.654 88.653 0l330.88-330.906c24.422-24.448 24.422-64.205 0.026-88.627l-330.906-330.906c-11.827-11.853-27.597-18.355-44.339-18.355zM209.613 541.44l302.387-302.362 302.387 302.362-302.387 302.336-302.387-302.336zM512-38.579c-16.742 0-32.512 6.528-44.339 18.381l-330.88 330.88c-16.179 16.179-16.179 42.419 0 58.573 16.179 16.179 42.419 16.179 58.598 0l316.621-316.595 316.621 316.595c16.205 16.179 42.394 16.179 58.573 0 16.205-16.154 16.205-42.394 0-58.573l-330.854-330.88c-11.827-11.878-27.597-18.381-44.339-18.381z" />
<glyph unicode="&#xe914;" glyph-name="javothemes-docs3" d="M852.096-38.4h-685.594c-33.152 0-60.16 26.982-60.16 60.134v858.778c0 29.696 24.192 53.888 53.914 53.888h423.629c23.373 0 42.291-18.944 42.291-42.291 0-23.373-18.918-42.291-42.291-42.291h-392.96v-803.635h642.176v573.389c0 23.373 18.893 42.291 42.24 42.291s42.291-18.944 42.291-42.291v-592.41c0.026-36.122-29.44-65.562-65.536-65.562zM609.229 580.070c-26.47 0-54.938 18.97-54.938 60.672v232.218c0 5.76 0.205 10.138 0.614 13.082 3.123 22.605 21.376 39.040 43.469 39.040 18.074 0 29.901-10.982 34.406-15.104l258.458-242.253c15.949-14.822 21.453-35.789 14.106-54.605-7.398-19.098-26.112-31.027-48.794-31.181l-247.322-1.869zM638.899 788.326v-123.443l130.611 0.998-130.611 122.445z" />
<glyph unicode="&#xe915;" glyph-name="javothemes-dot" d="M256.691 384.179c35.277 0 63.821 28.544 63.821 63.821s-28.544 63.821-63.821 63.821-63.821-28.544-63.821-63.821 28.544-63.821 63.821-63.821zM512 384.179c35.302 0 63.821 28.544 63.821 63.821s-28.518 63.821-63.821 63.821c-35.277 0-63.821-28.544-63.821-63.821s28.544-63.821 63.821-63.821zM767.309 384.179c35.302 0 63.821 28.544 63.821 63.821s-28.518 63.821-63.821 63.821c-35.277 0-63.821-28.544-63.821-63.821s28.544-63.821 63.821-63.821z" />
<glyph unicode="&#xe916;" glyph-name="javothemes-dounload" d="M801.101 261.914c-22.861 0-41.37 18.509-41.37 41.344 0 21.99 17.203 40.013 38.886 41.267 0.973 0.102 1.946 0.179 2.918 0.23 55.526 2.509 115.328 33.894 115.328 96.947 0 32.845-14.515 57.421-26.701 72.269-0.742 0.922-1.485 1.894-2.15 2.893-21.99 32.154-63.053 49.997-104.627 46.592-13.542-1.050-26.47 4.429-35.072 14.694-8.627 10.291-11.674 24.141-8.218 37.171 3.994 15.027 6.016 30.694 6.016 46.566 0 98.637-78.694 178.893-175.437 178.893-96.691 0-175.386-80.282-175.386-178.893 0-3.763 0.128-7.526 0.358-11.264 0.794-14.157-5.683-27.75-17.203-35.994-11.52-8.269-26.496-10.061-39.629-4.736-21.453 8.704-44.442 13.107-68.275 13.107-89.472 0-162.253-63.309-162.253-141.133 0-38.016 10.982-127.462 112.768-136.576 2.125-0.205 4.25-0.538 6.298-1.075 20.326-2.611 36.045-19.968 36.045-41.011 0-22.861-18.509-41.344-41.344-41.344-4.275 0-8.474 0.512-12.544 1.459-111.872 11.981-183.91 97.331-183.91 218.598 0 123.418 109.875 223.846 244.966 223.846 15.258 0 30.31-1.28 45.056-3.763 19.072 125.312 126.182 221.542 255.053 221.542 142.362 0 258.125-117.35 258.125-261.606 0-6.042-0.205-12.109-0.614-18.099 51.763-8.653 97.69-36.736 127.053-78.771 29.005-35.968 44.314-78.566 44.314-123.341 0-111.462-96.538-174.413-192.538-179.482-1.946-0.23-3.942-0.333-5.914-0.333zM235.904 261.914c-22.81 0-41.318 18.483-41.344 41.267-0.026 22.861 18.458 41.395 41.293 41.421l134.938 0.205c0.026 0 0.051 0 0.051 0 22.81 0 41.318-18.483 41.344-41.293 0.051-22.835-18.458-41.395-41.293-41.395l-134.938-0.205c0 0-0.026 0-0.051 0zM670.106 259.251c-22.579 0-41.062 18.15-41.344 40.832-0.282 22.835 17.997 41.574 40.832 41.882l114.278 1.485c0.179 0 0.358 0 0.538 0 22.579 0 41.037-18.176 41.318-40.832 0.282-22.861-17.997-41.6-40.832-41.882l-114.278-1.485c-0.179 0-0.333 0-0.512 0zM512.563-27.546c-9.523 0-18.97 3.302-26.573 9.677l-130.765 109.722c-17.51 14.694-19.789 40.781-5.12 58.266 14.694 17.485 40.806 19.763 58.24 5.069l62.874-52.736v379.853c0 22.861 18.509 41.344 41.344 41.344s41.344-18.509 41.344-41.344v-468.506c0-16.077-9.293-30.669-23.859-37.478-5.581-2.586-11.546-3.866-17.485-3.866zM512.589-27.546c-11.955 0-23.834 5.146-32 15.13-14.464 17.664-11.878 43.725 5.786 58.189l130.79 107.213c17.613 14.438 43.699 11.904 58.189-5.76 14.464-17.69 11.878-43.75-5.786-58.214l-130.79-107.213c-7.654-6.272-16.947-9.344-26.189-9.344z" />
<glyph unicode="&#xe917;" glyph-name="javothemes-envelope" d="M938.906 63.104h-855.373c-33.946 0-57.677 30.49-57.677 74.189v640.333c-0.486 8.115-1.434 23.962 10.061 38.989l12.16 15.821 23.066 0.358c2.278 0.154 4.634 0.154 6.733 0h17.331l0.538-1.178h843.187c52.070 0 57.702-37.76 57.702-53.965v-640.333c-0.026-43.725-23.757-74.214-57.728-74.214zM106.752 143.974h808.96v606.72h-808.96v-606.72zM513.664 368.256c-45.542 0-91.034 16.768-126.643 50.33l-351.206 343.731 58.086 59.315 350.643-343.194c38.272-36.096 101.171-35.84 139.648 1.101l345.83 339.661 58.138-59.213-346.189-340.019c-35.968-34.458-82.176-51.712-128.307-51.712zM707.626 534.566l284.875-384.508-66.707-49.422-284.875 384.508 66.707 49.422zM320.995 534.864l66.205-50.054-290.739-384.55-66.205 50.054 290.739 384.55z" />
<glyph unicode="&#xe918;" glyph-name="javothemes-export" d="M924.058-38.682h-824.115c-25.293 0-45.798 20.531-45.798 45.773v228.941c0 25.318 20.506 45.773 45.798 45.773s45.798-20.454 45.798-45.773v-183.117h732.544v183.117c0 25.318 20.506 45.773 45.773 45.773 25.293 0 45.798-20.454 45.798-45.773v-228.915c0-25.267-20.506-45.798-45.798-45.798zM511.488 201.728c-25.216 0-45.696 20.352-45.773 45.594l-2.125 640.998c-0.077 18.381 10.854 34.97 27.75 42.24 16.87 7.219 36.429 3.712 49.69-9.037l311.706-298.47c18.227-17.485 18.842-46.49 1.408-64.742-17.485-18.304-46.49-18.867-64.742-1.382l-233.882 223.949 1.766-533.248c0.077-25.293-20.352-45.875-45.645-45.926-0.026 0.026-0.102 0.026-0.154 0.026zM202.957 544.794c-11.904 0-23.859 4.608-32.845 13.875-17.613 18.125-17.203 47.078 0.947 64.742l306.432 297.907c18.125 17.562 47.078 17.229 64.742-0.947 17.613-18.125 17.203-47.104-0.947-64.717l-306.432-297.907c-8.883-8.653-20.403-12.954-31.898-12.954z" />
<glyph unicode="&#xe919;" glyph-name="javothemes-eyes" d="M512.205 299.904c-81.638 0-148.096 66.483-148.096 148.096 0 81.638 66.458 148.096 148.096 148.096 81.664 0 148.096-66.458 148.096-148.096 0-81.613-66.432-148.096-148.096-148.096zM512.205 511.462c-35.021 0-63.462-28.467-63.462-63.462s28.467-63.462 63.462-63.462c34.995 0 63.462 28.467 63.462 63.462s-28.467 63.462-63.462 63.462zM67.942 405.709c-5.069 0-10.214 0.896-15.206 2.79-21.786 8.371-32.691 32.896-24.294 54.707 67.43 175.232 289.306 323.302 484.582 323.302 192.333 0 413.389-145.894 482.739-318.618 8.704-21.683-1.792-46.336-23.501-54.989-21.709-8.73-46.362 1.792-55.040 23.475-56.755 141.44-245.658 265.523-404.198 265.523-158.106 0-351.411-128.256-405.581-269.082-6.502-16.819-22.528-27.11-39.501-27.11zM513.024 109.491c-195.251 0-417.152 148.045-484.582 323.302-8.397 21.811 2.509 46.336 24.294 54.707 21.837 8.397 46.336-2.509 54.707-24.294 54.17-140.8 247.475-269.082 405.581-269.082 158.541 0 347.443 124.083 404.198 265.498 8.704 21.683 33.357 32.23 55.040 23.501 21.709-8.704 32.205-33.357 23.501-54.989-69.35-172.698-290.406-318.643-482.739-318.643z" />
<glyph unicode="&#xe91a;" glyph-name="javothemes-fax" d="M937.6 130.79h-171.802c-23.347 0-42.291 18.944-42.291 42.291s18.944 42.291 42.291 42.291h148.019v389.709c0 42.342-35.994 75.52-81.946 75.52h-634.368c-47.283 0-87.219-34.586-87.219-75.52v-389.683h148.019c23.373 0 42.291-18.944 42.291-42.291s-18.944-42.291-42.291-42.291h-166.554c-35.814 0-66.074 28.365-66.074 61.926v412.339c0 88.294 77.056 160.102 171.802 160.102h634.368c93.363 0 166.528-70.323 166.528-160.102v-412.339c0.026-34.714-26.675-61.952-60.774-61.952zM723.507-38.374h-422.912c-34.995 0-63.437 28.467-63.437 63.462v338.304c0 34.995 28.442 63.462 63.437 63.462h422.912c34.97 0 63.462-28.442 63.462-63.462v-338.33c-0.026-34.97-28.493-63.437-63.462-63.437zM321.715 46.234h380.621v296.038h-380.621v-296.038zM786.944 680.602c-23.373 0-42.291 18.944-42.291 42.291v126.874h-465.203v-126.874c0-23.347-18.944-42.291-42.291-42.291-23.373 0-42.291 18.944-42.291 42.291v148.019c0 34.381 30.259 63.437 66.099 63.437h507.52c34.662 0 60.774-27.264 60.774-63.437v-148.019c-0.026-23.347-18.97-42.291-42.317-42.291z" />
<glyph unicode="&#xe91b;" glyph-name="javothemes-flag" d="M490.854 426.854h-359.526c-23.347 0-42.266 18.944-42.266 42.291v401.792c0 35.021 28.442 63.462 63.437 63.462h338.355c34.97 0 63.462-28.442 63.462-63.462v-380.646c-0.026-34.97-28.493-63.437-63.462-63.437zM173.619 511.462h296.064v338.355h-296.064v-338.355zM871.526 342.272h-338.381c-34.995 0-63.462 28.442-63.462 63.462v401.766c0 23.347 18.918 42.291 42.291 42.291h359.526c34.944 0 63.437-28.467 63.437-63.437v-380.646c0-34.995-28.467-63.437-63.411-63.437zM554.291 426.854h296.038v338.355h-296.038v-338.355zM131.328-38.4c-23.347 0-42.266 18.944-42.266 42.317v465.254c0 23.347 18.918 42.291 42.266 42.291 23.373 0 42.291-18.944 42.291-42.291v-465.229c0-23.398-18.918-42.342-42.291-42.342z" />
<glyph unicode="&#xe91c;" glyph-name="javothemes-folder" d="M937.19 22.605h-850.816c-56.243 0-60.774 87.040-60.774 87.962v580.531c0 22.374 18.125 40.525 40.525 40.525s40.525-18.125 40.525-40.525v-580.557c0.154-1.357 0.691-3.994 1.485-6.938h807.322c0.794 3.2 1.408 6.195 1.562 8.038l-0.026 538.931h-486.246c-22.374 0-40.525 18.15-40.525 40.525s18.15 40.525 40.525 40.525h506.445c33.536 0 60.774-26.803 60.774-59.75v-561.306c0-0.922-4.506-87.962-60.774-87.962zM66.125 670.848c-22.4 0-40.525 18.125-40.525 40.499v85.222c0 44.646 32.026 56.576 50.944 56.576h256.051c-0.128 0.051 0.768 0.282 1.562 0.486 6.989 1.459 25.472 5.376 41.907-7.91 6.042-4.89 10.547-11.29 13.235-18.483l56.141-95.309c11.366-19.277 4.915-44.109-14.362-55.475-19.251-11.392-44.083-4.941-55.475 14.362l-47.872 81.331h-221.082l-0.026-60.8c0-22.374-18.125-40.499-40.499-40.499zM896.666 792.397h-405.146c-22.374 0-40.525 18.125-40.525 40.525s18.125 40.525 40.525 40.525h405.146c22.374 0 40.525-18.125 40.525-40.525s-18.15-40.525-40.525-40.525z" />
<glyph unicode="&#xe91d;" glyph-name="javothemes-heart" d="M513.126-21.402c-17.664 0-34.458 7.987-46.054 21.837l-371.994 444.493c-1.946 1.69-3.763 3.61-5.427 5.683-2.483 3.098-4.89 6.272-7.27 9.498l-8.064 9.651c-4.019 4.813-6.861 10.189-8.499 15.846-15.309 26.624-26.291 55.808-32.256 86.118-3.635 18.278-5.427 37.12-5.427 55.987 0 152.806 119.629 277.12 266.675 277.12 88.346 0 169.498-45.978 218.522-118.4 49.050 72.346 130.125 118.221 218.394 118.221 147.072-0.051 266.675-124.339 266.675-277.146 0-18.714-1.818-37.555-5.427-55.987-6.093-30.822-17.331-60.442-32.973-87.373-1.587-4.659-3.917-9.114-7.117-13.235l-12.16-15.59c-1.254-1.638-2.534-3.251-3.814-4.89-2.125-2.611-4.429-4.915-6.938-6.938l-370.765-443.034c-11.546-13.875-28.39-21.862-46.080-21.862v0zM152.038 514.304l361.062-431.488 363.469 434.381c14.515 21.376 24.755 45.798 29.824 71.424 2.534 12.8 3.763 25.882 3.763 38.912 0 104.141-80.077 188.877-178.509 188.877-78.771 0-149.222-55.808-171.264-135.731-5.376-19.43-23.706-32.666-43.392-32.358l-9.242 0.179c-19.507 0.384-36.454 13.517-41.626 32.333-22.118 79.949-92.595 135.757-171.341 135.757-98.406 0-178.458-84.736-178.458-188.902 0-13.133 1.28-26.214 3.763-38.886 5.299-26.88 16.307-52.429 31.949-74.496z" />
<glyph unicode="&#xe91e;" glyph-name="javothemes-house" d="M363.981-38.4h-214.118c-34.099 0-60.826 25.498-60.826 58.010v534.144h84.582v-507.571h190.336v-84.582zM874.138-38.4h-235.238v84.608h211.482v486.4h84.582v-513.024c-0.026-32.486-26.701-57.984-60.826-57.984zM892.672 492.723c-10.394 0-20.787 3.789-28.954 11.443l-352.102 330.317-351.744-321.024c-17.254-15.77-44.032-14.541-59.75 2.714-15.744 17.254-14.515 43.981 2.714 59.725l380.672 347.443c16.307 14.899 41.293 14.746 57.421-0.41l380.672-357.069c17.024-16 17.894-42.752 1.92-59.776-8.32-8.883-19.558-13.363-30.848-13.363zM681.19-38.4h-84.608v274.918h-169.19v-274.918h-84.582v317.235c0 23.373 18.944 42.291 42.291 42.291h253.773c23.347 0 42.291-18.918 42.291-42.291v-317.235z" />
<glyph unicode="&#xe91f;" glyph-name="javothemes-import" d="M923.699-38.4h-823.424c-25.242 0-45.722 20.48-45.722 45.747v228.762c0 25.242 20.48 45.722 45.722 45.722 25.267 0 45.747-20.48 45.747-45.722v-183.014h731.955v183.014c0 25.242 20.506 45.722 45.722 45.722 25.293 0 45.747-20.48 45.747-45.722v-228.762c0-25.267-20.454-45.747-45.747-45.747zM509.389 201.754c-6.093 0-12.237 1.254-18.022 3.738-16.87 7.219-27.802 23.808-27.75 42.163l2.125 640.461c0.102 25.216 20.557 45.594 45.747 45.594 0.026 0 0.077 0 0.154 0 25.267-0.077 45.696-20.659 45.594-45.901l-1.766-532.787 233.677 223.744c18.253 17.459 47.232 16.845 64.666-1.382 17.485-18.253 16.845-47.232-1.382-64.691l-311.373-298.214c-8.73-8.346-20.096-12.723-31.667-12.723zM509.414 201.754c-11.494 0-22.989 4.352-31.872 12.954l-306.202 297.651c-18.15 17.613-18.56 46.566-0.947 64.666 17.613 18.202 46.566 18.509 64.666 0.947l306.253-297.651c18.125-17.613 18.534-46.566 0.922-64.691-8.986-9.242-20.915-13.875-32.819-13.875z" />
<glyph unicode="&#xe920;" glyph-name="javothemes-jewelry" d="M955.264 571.878c-15.437 0-30.131 8.397-37.658 22.963l-103.373 201.19h-585.523l-124.902-201.523c-12.288-19.84-38.349-25.984-58.189-13.619-19.84 12.262-25.958 38.323-13.67 58.138l127.872 206.285c5.53 15.411 20.557 35.251 61.21 35.251h602.138c42.598 0 57.062-21.786 61.926-37.376l107.725-209.715c10.675-20.762 2.458-46.259-18.304-56.909-6.221-3.174-12.749-4.685-19.251-4.685zM516.557 0.973c-26.419 0-52.198 12.134-67.328 31.642l-410.010 519.91c-14.592 18.842-17.536 41.293-8.218 60.339 6.477 13.21 24.218 35.277 70.298 35.277h820.48c46.080 0 63.846-22.093 70.323-35.277 9.318-19.072 6.374-41.549-7.987-60.032l-410.368-525.44c-12.954-16.742-33.843-26.419-57.19-26.419zM516.557 85.453v0zM138.061 563.661l375.45-476.083 371.84 476.083h-747.29zM540.493 16.205c-3.2 0-6.502 0.41-9.702 1.126-22.733 5.376-36.813 28.109-31.462 50.816l175.795 748.134c5.35 22.733 28.186 36.813 50.79 31.488 22.784-5.325 36.813-28.109 31.514-50.79l-175.846-748.186c-4.582-19.456-21.939-32.589-41.088-32.589zM495.744 6.682c-19.405 0-36.89 13.44-41.216 33.178l-167.347 757.658c-5.018 22.784 9.37 45.338 32.154 50.381 22.682 4.992 45.338-9.344 50.355-32.154l167.373-757.734c4.992-22.784-9.395-45.338-32.179-50.355-3.098-0.666-6.195-0.973-9.139-0.973z" />
<glyph unicode="&#xe921;" glyph-name="javothemes-like" d="M314.163 21.018h-222.054c-36.045 0-66.509 29.235-66.509 63.77v433.152c0 33.485 29.056 72.397 66.509 72.397h222.054c28.39 0 57.062-22.4 57.062-72.397v-433.152c0-44.032-28.646-63.77-57.062-63.77zM106.931 102.349h182.938l0.051 406.656h-182.989v-406.656zM779.443 61.67h-42.24c-22.451 0-40.653 18.227-40.653 40.678s18.202 40.653 40.653 40.653h42.24c1.741 0 42.445 0.256 50.688 21.632 12.186 31.411 59.213 215.245 87.936 331.187 0.998 9.779-9.216 41.856-18.637 53.837h-243.558c-22.451 0-40.653 18.202-40.653 40.678s18.202 40.653 40.653 40.653h251.546c13.978 0 34.688-5.043 54.195-29.056 26.189-32.384 42.88-90.47 35.712-124.339-7.757-31.334-73.395-296.064-91.29-342.323-21.018-54.246-79.155-73.6-126.592-73.6zM351.488 445.542c-16.154 0-31.462 9.728-37.811 25.728-8.269 20.838 1.946 44.467 22.81 52.736l32.717 12.979 85.504 151.654c-0.922 31.539-1.408 95.206 8.602 123.622 11.648 32.998 54.554 60.442 97.715 62.566 31.386 1.587 90.419-8.602 130.304-93.926 63.206-135.296-2.79-216.704-5.658-220.134-14.413-17.229-40.013-19.558-57.242-5.12-17.229 14.413-19.558 40.064-5.12 57.293 0.896 1.229 34.662 47.232-5.658 133.53-9.421 20.198-25.344 44.774-47.462 47.002-13.978 1.229-26.496-6.195-30.771-10.47-3.379-14.413-4.787-60.467-3.046-102.63l0.512-11.571-110.95-196.762-59.443-23.578c-4.89-1.997-9.984-2.918-15.002-2.918zM777.882 61.67h-294.886l-6.784 2.483c-46.387 16.998-145.203 54.246-145.203 54.246l28.723 76.083c0.026 0 89.395-33.69 137.677-51.482h280.474c22.451 0 40.653-18.202 40.653-40.653s-18.202-40.678-40.653-40.678z" />
<glyph unicode="&#xe922;" glyph-name="javothemes-link" d="M349.491-35.917c-80.717 0-161.536 30.49-223.462 91.546-124.954 123.136-126.643 324.787-3.814 449.459l63.59 65.254c19.763 20.25 52.147 20.685 72.397 0.947s20.685-52.147 0.947-72.397l-63.77-65.485c-83.456-84.685-82.227-221.338 2.534-304.845 84.736-83.558 221.389-82.739 304.64 1.69l63.565 65.254c19.763 20.25 52.147 20.71 72.397 0.947s20.685-52.147 0.947-72.397l-63.77-65.459c-62.054-62.976-144.102-94.515-226.202-94.515zM801.51 310.17c-12.902 0-25.779 4.838-35.738 14.541-20.224 19.738-20.659 52.147-0.922 72.397l63.795 65.459c83.43 84.685 82.202 221.338-2.534 304.845-84.762 83.533-221.44 82.714-304.666-1.715l-63.565-65.254c-19.738-20.25-52.147-20.71-72.397-0.947-20.25 19.738-20.685 52.147-0.947 72.397l63.77 65.485c123.034 124.902 324.736 126.182 449.69 2.995 124.954-123.162 126.643-324.813 3.789-449.459l-63.59-65.306c-10.061-10.24-23.373-15.437-36.685-15.437zM387.072 270.029c-12.979 0-25.958 4.89-35.917 14.694-20.147 19.84-20.403 52.301-0.538 72.397l249.856 253.568c19.84 20.147 52.25 20.403 72.397 0.538s20.403-52.275 0.538-72.397l-249.856-253.568c-10.035-10.138-23.245-15.232-36.48-15.232z" />
<glyph unicode="&#xe923;" glyph-name="javothemes-location" d="M783.309 321.92c-8.986 0-17.997 2.816-25.651 8.704-18.586 14.157-22.118 40.73-7.962 59.264 38.144 49.946 58.317 109.338 58.317 171.75 0 158.899-132.813 288.154-296.013 288.154-23.347 0-42.291 18.918-42.291 42.291s18.944 42.317 42.291 42.317c209.869 0 380.595-167.219 380.595-372.736 0-81.126-26.189-158.285-75.699-223.078-8.269-10.931-20.89-16.666-33.587-16.666zM512 413.645c-81.613 0-148.019 66.406-148.019 148.019s66.432 148.019 148.019 148.019c81.613 0 148.019-66.406 148.019-148.019s-66.406-148.019-148.019-148.019zM512 625.075c-34.995 0-63.437-28.442-63.437-63.437 0-34.97 28.442-63.437 63.437-63.437s63.462 28.467 63.462 63.437c0 35.021-28.467 63.437-63.462 63.437zM511.974-38.246c-8.858 0-17.792 2.765-25.421 8.525-18.662 14.029-22.4 40.55-8.346 59.213l271.309 360.166c14.080 18.662 40.525 22.374 59.213 8.346 18.662-14.080 22.4-40.627 8.32-59.213l-271.258-360.166c-8.32-11.085-20.992-16.87-33.818-16.87zM240.717 321.92c-12.723 0-25.318 5.734-33.613 16.64-49.51 64.794-75.699 141.952-75.699 223.078 0 205.542 170.726 372.762 380.595 372.762 23.373 0 42.291-18.944 42.291-42.291 0-23.373-18.944-42.291-42.291-42.291-163.226 0-296.013-129.28-296.013-288.154 0-62.438 20.147-121.83 58.317-171.75 14.182-18.56 10.65-45.133-7.91-59.264-7.706-5.888-16.717-8.73-25.677-8.73zM512.026-38.246c-12.826 0-25.523 5.811-33.818 16.87l-271.283 360.166c-14.054 18.611-10.317 45.158 8.346 59.213 18.662 14.029 45.184 10.317 59.213-8.346l271.309-360.166c14.003-18.662 10.291-45.21-8.371-59.213-7.603-5.76-16.538-8.525-25.395-8.525z" />
<glyph unicode="&#xe924;" glyph-name="javothemes-management" d="M912.998-16.819h-802.893c-40.806 0-63.386 44.058-63.386 74.496v474.829c0 23.347 18.918 42.24 42.266 42.24s42.266-18.918 42.266-42.24v-464.819h760.602v464.819c0 23.347 18.944 42.24 42.266 42.24 23.373 0 42.24-18.918 42.24-42.24v-474.829c0.026-30.464-22.554-74.496-63.36-74.496zM638.336 701.542h-253.542c-34.944 0-63.386 28.442-63.386 63.386v84.506c0 34.97 28.442 63.386 63.386 63.386h253.542c34.97 0 63.411-28.416 63.411-63.386v-84.506c-0.026-34.944-28.442-63.386-63.411-63.386zM405.914 786.074h211.277v42.24h-211.277v-42.24zM828.467 426.88h-633.83c-90.061 0-169.037 84.173-169.037 180.147v112.128c0 27.648 20.070 48.538 46.669 48.538 6.81 0 12.493-1.408 16.256-2.355l2.355-0.538 843.699 0.538c3.738 0.947 9.446 2.355 16.282 2.355 26.598 0 46.643-20.89 46.643-48.538v-112.128c0-95.974-78.976-180.147-169.037-180.147zM110.106 680.422v-73.395c0-49.152 41.062-95.642 84.506-95.642h633.856c43.443 0 84.531 46.49 84.531 95.642v73.395h-802.893zM596.070 257.818h-169.037c-44.237 0-63.386 53.99-63.386 81.562v108.621c0 23.347 18.918 42.266 42.24 42.266s42.24-18.918 42.24-42.266v-105.651h126.848l-0.026 105.651c0 23.347 18.918 42.266 42.24 42.266 23.347 0 42.24-18.918 42.24-42.266v-108.621c0.026-27.546-19.123-81.562-63.36-81.562z" />
<glyph unicode="&#xe925;" glyph-name="javothemes-mic" d="M533.146 300.39h-42.266c-93.235 0-169.062 75.853-169.062 169.062v295.885c-0.026 93.21 75.827 169.062 169.037 169.062h42.266c93.21 0 169.062-75.853 169.062-169.062v-295.859c0.026-93.235-75.827-169.088-169.037-169.088zM490.854 849.869c-46.618 0-84.531-37.914-84.531-84.531v-295.859c0-46.618 37.914-84.531 84.531-84.531h42.266c46.618 0 84.506 37.914 84.506 84.531v295.859c0 46.618-37.888 84.531-84.506 84.531h-42.266zM512 152.448c-186.445 0-338.125 132.736-338.125 295.885 0 23.347 18.918 42.266 42.266 42.266s42.266-18.918 42.266-42.266c0-116.531 113.766-211.328 253.594-211.328 139.853 0 253.594 94.797 253.594 211.328 0 23.347 18.944 42.266 42.24 42.266 23.347 0 42.291-18.918 42.291-42.266 0.026-163.149-151.68-295.885-338.125-295.885zM512-37.76c-23.347 0-42.266 18.918-42.266 42.266v169.062c0 23.322 18.918 42.24 42.266 42.24s42.24-18.918 42.24-42.24v-169.062c0-23.322-18.893-42.266-42.24-42.266zM723.354-37.76h-422.682c-23.347 0-42.266 18.918-42.266 42.266s18.918 42.266 42.266 42.266h422.682c23.347 0 42.24-18.918 42.24-42.266s-18.893-42.266-42.24-42.266z" />
<glyph unicode="&#xe926;" glyph-name="javothemes-none" d="M940.723-35.738c-14.669 0-29.338 5.632-40.525 16.717l-857.421 852.506c-22.502 22.374-22.605 58.778-0.23 81.28 22.4 22.477 58.752 22.579 81.254 0.23l857.421-852.454c22.502-22.4 22.63-58.829 0.23-81.331-11.238-11.264-25.984-16.947-40.73-16.947zM83.277-35.738c-14.746 0-29.517 5.683-40.73 16.947-22.4 22.502-22.272 58.931 0.23 81.331l857.421 852.454c22.502 22.374 58.854 22.272 81.254-0.23s22.272-58.906-0.23-81.28l-857.421-852.48c-11.238-11.11-25.856-16.742-40.525-16.742z" />
<glyph unicode="&#xe927;" glyph-name="javothemes-paragraph" d="M947.2 678.4h-870.4c-28.262 0-51.2 22.938-51.2 51.2s22.938 51.2 51.2 51.2h870.4c28.262 0 51.2-22.938 51.2-51.2s-22.938-51.2-51.2-51.2zM947.2 396.8h-870.4c-28.262 0-51.2 22.938-51.2 51.2s22.938 51.2 51.2 51.2h870.4c28.262 0 51.2-22.938 51.2-51.2s-22.938-51.2-51.2-51.2zM947.2 115.2h-870.4c-28.262 0-51.2 22.938-51.2 51.2s22.938 51.2 51.2 51.2h870.4c28.262 0 51.2-22.938 51.2-51.2s-22.938-51.2-51.2-51.2z" />
<glyph unicode="&#xe928;" glyph-name="javothemes-people" d="M512 395.955c-148.301 0-268.979 120.653-268.979 268.979s120.678 268.954 268.979 268.954c148.326 0 269.005-120.653 269.005-268.979s-120.678-268.954-269.005-268.954zM512 851.149c-102.682 0-186.189-83.533-186.189-186.214s83.533-186.214 186.189-186.214c102.707 0 186.189 83.533 186.189 186.214 0 102.656-83.482 186.214-186.189 186.214zM909.67-38.4h-785.024c-47.462 0-67.84 65.715-67.84 86.605v135.834c0 162.458 199.936 289.69 455.194 289.69s455.194-127.232 455.194-289.69v-135.834c0-39.962-15.053-86.605-57.523-86.605zM141.696 44.365h742.554c0.102 1.408 0.205 2.714 0.205 3.814v135.834c0 112.154-170.598 206.925-372.454 206.925-201.907 0-372.429-94.771-372.429-206.925v-133.709c0.41-1.613 1.203-3.763 2.125-5.939z" />
<glyph unicode="&#xe929;" glyph-name="javothemes-rain" d="M785.946 268.211h-549.76c-5.555 0-14.31 1.126-23.117 6.733-101.658 16.384-166.477 101.248-166.477 220.288 0 123.136 105.702 223.258 235.622 223.258 13.568 0 26.906-1.050 40.013-3.2 18.995 124.083 121.6 219.11 244.915 219.11 136.858 0 248.141-116.966 248.141-260.762 0-5.888-0.205-11.776-0.538-17.613 49.459-9.37 92.646-37.504 120.55-79.232 27.213-35.302 42.112-79.002 42.112-123.29 0-106.445-83.354-169.088-170.701-179.814-6.861-3.866-14.259-5.478-20.762-5.478zM251.034 352.845h519.219c3.942 1.843 7.552 2.739 9.907 3.2l5.939 0.717c53.043 2.509 106.701 36.531 106.701 96.717 0 26.035-8.96 51.789-25.19 72.499l-2.15 2.97c-18.739 28.723-51.046 45.875-86.246 45.875-4.198 0-6.938 0.026-9.651-0.179l-59.162-5.043 14.541 57.549c3.789 15.104 5.709 30.746 5.709 46.49 0 97.126-73.293 176.154-163.507 176.154-90.112 0-163.456-78.976-163.456-176.077 0-3.763 0.128-7.475 0.333-11.213l3.738-67.738-62.49 26.496c-19.789 8.371-41.011 12.621-63.053 12.621-83.251 0-150.989-62.208-150.989-138.65 0-30.029 7.552-128.87 104.474-137.933l6.298-0.563 5.837-2.432c1.101-0.461 2.176-0.922 3.2-1.459zM598.758-38.733c-8.653 0-17.408 2.662-24.96 8.192-18.842 13.773-22.938 40.269-9.139 59.136l130.202 177.766c13.798 18.867 40.243 22.938 59.162 9.139 18.842-13.798 22.938-40.269 9.088-59.162l-130.15-177.766c-8.32-11.29-21.171-17.306-34.202-17.306zM381.773-38.733c-8.678 0-17.408 2.662-24.96 8.192-18.867 13.773-22.938 40.269-9.114 59.136l130.202 177.766c13.798 18.867 40.269 22.938 59.136 9.139s22.938-40.269 9.139-59.162l-130.202-177.766c-8.32-11.29-21.171-17.306-34.202-17.306zM164.813-38.733c-8.678 0-17.434 2.662-24.96 8.192-18.867 13.773-22.963 40.269-9.114 59.136l130.176 177.766c13.824 18.867 40.269 22.938 59.136 9.139s22.938-40.269 9.139-59.162l-130.202-177.766c-8.294-11.29-21.146-17.306-34.176-17.306z" />
<glyph unicode="&#xe92a;" glyph-name="javothemes-search" d="M932.019-38.246c-11.52 0-23.066 4.48-31.718 13.389l-235.981 242.97c-16.998 17.562-16.589 45.517 0.896 62.541 17.562 16.998 45.491 16.589 62.515-0.896l235.981-243.021c16.998-17.51 16.589-45.466-0.896-62.49-8.602-8.371-19.712-12.493-30.797-12.493zM452.070 134.246c-222.925 0-404.275 179.507-404.275 400.077 0 220.595 181.35 400.077 404.275 400.077s404.301-179.482 404.301-400.077c0-220.57-181.376-400.077-404.301-400.077zM452.070 845.978c-174.157 0-315.853-139.802-315.853-311.654 0-171.827 141.696-311.68 315.853-311.68s315.878 139.853 315.878 311.68c0 171.853-141.722 311.654-315.878 311.654z" />
<glyph unicode="&#xe92b;" glyph-name="javothemes-setting" d="M511.949 281.446c-92.416 0-167.603 75.213-167.603 167.603s75.187 167.603 167.603 167.603 167.603-75.187 167.603-167.603-75.213-167.603-167.603-167.603zM511.949 532.864c-46.208 0-83.789-37.581-83.789-83.789s37.581-83.814 83.789-83.814 83.814 37.606 83.814 83.814-37.606 83.789-83.814 83.789zM600.141-38.656h-167.578c-41.702 0-67.2 50.048-67.2 77.312v50.662c-22.554 9.037-44.134 20.531-66.33 35.354l-39.040-28.8c-28.723-20.429-68.838-12.851-88.192 14.387l-97.254 136.474c-9.728 13.645-13.594 30.31-10.803 46.848 2.765 16.563 11.853 31.078 25.549 40.832l40.934 29.158c-7.936 31.59-11.93 63.77-11.93 95.974 0 30.413 3.43 60.544 10.24 89.933l-47.437 33.126c-28.442 19.968-35.43 59.213-15.642 87.526l95.77 137.293c19.098 27.443 59.571 34.688 87.014 15.514l45.338-32.205c23.219 15.795 47.002 28.595 71.782 38.682v95.667h222.976c5.99 4.608 14.874 9.318 26.675 9.318 1.766 0 43.622-0.563 43.622-51.2v-53.402c25.446-9.933 49.92-22.426 72.576-37.094l42.598 29.338c10.214 7.27 22.81 11.264 35.891 11.264 20.275 0 39.398-9.805 51.2-26.317l97.254-136.55c20.096-28.16 13.542-67.482-14.643-87.629l-40.576-28.902c7.629-31.027 11.469-62.669 11.469-94.413 0-31.565-3.789-63.002-11.341-93.875l34.381-24.090c13.594-9.498 22.784-23.859 25.728-40.32 2.944-16.589-0.742-33.357-10.419-47.181l-96.384-137.37c-11.75-16.742-31.13-26.778-51.84-26.778v0c-13.082 0-25.6 3.917-36.224 11.366l-36.787 25.242c-22.733-14.72-47.309-27.29-72.883-37.274v-50.586c0.026-38.374-20.070-77.286-58.496-77.286zM449.152 45.184h125.696v105.011l29.798 9.011c36.659 11.059 71.552 28.902 100.941 51.584l24.192 18.637 69.683-47.898 72.627 103.526-66.97 46.976 9.677 29.517c10.496 32 15.821 64.973 15.821 98.022 0 33.126-5.376 66.15-15.898 98.253l-9.651 29.312 72.73 51.789-73.114 102.682-75.085-51.814-24.192 18.637c-29.363 22.605-64.23 40.397-100.762 51.405l-29.798 9.011v72.448h-125.696v-72.166l-29.44-9.165c-35.149-10.957-67.789-28.544-99.814-53.811l-24.627-19.379-77.568 55.091-71.526-102.502 79.77-55.731-9.267-29.338c-9.677-30.592-14.592-62.464-14.592-94.771 0-33.485 5.53-66.944 16.41-99.533l9.805-29.389-73.37-52.326 72.755-102.093 71.398 52.659 24.986-19.072c33.075-25.19 62.413-40.781 95.13-50.534l29.952-8.909v-105.139z" />
<glyph unicode="&#xe92c;" glyph-name="javothemes-setting2" d="M237.082 744.064h-169.19c-23.347 0-42.291 18.944-42.291 42.291s18.944 42.317 42.291 42.317h169.165c23.373 0 42.291-18.944 42.291-42.291s-18.918-42.317-42.266-42.317zM490.854 659.482h-253.773c-23.347 0-42.291 18.944-42.291 42.291v169.165c0 23.373 18.944 42.291 42.291 42.291h253.773c23.373 0 42.291-18.944 42.291-42.291v-169.165c0-23.373-18.944-42.291-42.291-42.291zM279.373 744.064h169.19v84.608h-169.19v-84.608zM956.109 744.064h-465.254c-23.347 0-42.291 18.944-42.291 42.291s18.944 42.291 42.291 42.291h465.254c23.347 0.026 42.291-18.918 42.291-42.291s-18.944-42.291-42.291-42.291zM956.109 405.709h-169.165c-23.347 0-42.291 18.944-42.291 42.291s18.944 42.291 42.291 42.291h169.165c23.347 0 42.291-18.944 42.291-42.291 0-23.373-18.944-42.291-42.291-42.291zM786.918 321.101h-253.773c-23.373 0-42.291 18.944-42.291 42.291v169.19c0 23.373 18.944 42.291 42.291 42.291h253.773c23.347 0 42.291-18.944 42.291-42.291v-169.19c0.026-23.347-18.944-42.291-42.291-42.291zM575.462 405.709h169.165v84.582h-169.165v-84.582zM533.146 405.709h-465.254c-23.347 0-42.291 18.918-42.291 42.291 0 23.347 18.944 42.291 42.291 42.291h465.254c23.347 0 42.291-18.944 42.291-42.291 0.026-23.373-18.944-42.291-42.291-42.291zM237.082 67.328h-169.19c-23.347 0-42.291 18.944-42.291 42.291 0 23.373 18.944 42.291 42.291 42.291h169.165c23.373 0 42.291-18.918 42.291-42.291 0.026-23.347-18.918-42.291-42.266-42.291zM490.854-17.254h-253.773c-23.347 0-42.291 18.918-42.291 42.291v169.165c0 23.347 18.944 42.291 42.291 42.291h253.773c23.373 0 42.291-18.944 42.291-42.291v-169.165c0-23.373-18.944-42.291-42.291-42.291zM279.373 67.328h169.19v84.608h-169.19v-84.608zM956.109 67.328h-465.254c-23.347 0-42.291 18.944-42.291 42.291 0 23.373 18.944 42.291 42.291 42.291h465.254c23.347 0 42.291-18.918 42.291-42.291 0-23.347-18.944-42.291-42.291-42.291z" />
<glyph unicode="&#xe92d;" glyph-name="javothemes-shop" d="M702.362-37.837h-380.749c-80.307 0-143.334 56.294-144.538 128.563l-51.763 548.275c-0.128 1.28-0.154 2.56-0.154 3.814 0 25.19 18.15 52.326 58.035 52.326h657.638c32.563 0 58.035-24.090 58.035-54.81 0-1.28-0.077-2.56-0.205-3.814l-51.738-546.611c-1.178-72.986-62.899-127.744-144.563-127.744zM209.536 613.709l48.794-517.018c0.102-1.28 0.154-2.534 0.154-3.814 0-32 32.538-49.254 63.13-49.254h380.723c31.386 0 63.155 16.589 63.155 48.41 0 1.254 0.077 2.534 0.205 3.814l49.024 517.862h-605.184zM674.893 613.709c-22.554 0-40.73 18.227-40.73 40.73v62.029c0 76.518-53.683 136.474-122.163 136.474s-122.163-59.955-122.163-136.474v-62.029c0-22.477-18.253-40.73-40.678-40.73-22.528 0-40.73 18.227-40.73 40.73v62.029c-0.026 122.214 89.421 217.933 203.571 217.933 114.176 0 203.597-95.718 203.597-217.933v-62.029c0-22.477-18.253-40.73-40.704-40.73z" />
<glyph unicode="&#xe92e;" glyph-name="javothemes-shop2" d="M841.626 8.346h-659.2c-20.224 0-36.634 16.41-36.634 36.608v421.146c0 20.224 16.41 36.608 36.634 36.608s36.634-16.384 36.634-36.608v-384.512h585.933v384.512c0 20.224 16.41 36.608 36.634 36.608 20.198 0 36.608-16.384 36.608-36.608v-421.146c0-20.198-16.41-36.608-36.608-36.608zM603.571 26.65h-183.091c-30.285 0-54.938 24.653-54.938 54.938v183.117c0 30.285 24.653 54.938 54.938 54.938h183.091c30.31 0 54.938-24.653 54.938-54.938v-183.091c0-30.31-24.627-54.963-54.938-54.963zM438.784 99.891h146.483v146.483h-146.483v-146.483zM961.715 565.402c-13.85 0-27.11 7.885-33.28 21.274l-105.037 227.302h-622.899l-105.011-222.976c-8.627-18.278-30.413-26.138-48.742-17.536-18.278 8.627-26.138 30.438-17.536 48.742l110.336 234.266c1.946 7.552 5.862 14.31 11.546 19.686 13.491 12.749 30.157 11.75 38.195 11.264 1.306-0.077 2.739-0.179 4.224-0.179h637.030c1.51 0 2.893 0.102 4.224 0.179 8.013 0.486 24.73 1.459 38.246-11.29 5.683-5.376 9.651-12.211 11.571-19.814l110.387-238.899c8.474-18.381 0.461-40.115-17.869-48.614-4.992-2.304-10.24-3.405-15.386-3.405zM399.616 438.861c-82.176 0-149.043 66.842-149.043 149.043 0 20.224 16.41 36.634 36.634 36.634s36.634-16.41 36.634-36.634c0-41.805 34.022-75.802 75.802-75.802 41.805 0 75.776 33.997 75.776 75.802 0 20.224 16.41 36.634 36.634 36.634s36.634-16.41 36.634-36.634c-0.026-82.202-66.893-149.043-149.069-149.043zM849.306 438.861c-82.202 0-149.043 66.842-149.043 149.043 0 20.224 16.384 36.634 36.634 36.634 20.224 0 36.608-16.41 36.608-36.634 0-41.805 33.997-75.802 75.827-75.802 41.779 0 75.75 33.997 75.75 75.802 0 20.224 16.461 36.634 36.659 36.634 20.224 0 36.608-16.41 36.608-36.634-0.051-82.202-66.867-149.043-149.043-149.043zM624.461 438.861c-82.202 0-149.043 66.842-149.043 149.043 0 20.224 16.41 36.634 36.634 36.634s36.634-16.41 36.634-36.634c0-41.805 33.997-75.802 75.802-75.802s75.776 33.997 75.776 75.802c0 20.224 16.41 36.634 36.634 36.634 20.25 0 36.634-16.41 36.634-36.634-0.051-82.202-66.893-149.043-149.069-149.043zM174.797 438.861c-82.176 0-149.043 66.842-149.043 149.043 0 20.224 16.384 36.634 36.634 36.634 20.224 0 36.634-16.41 36.634-36.634 0-41.805 34.022-75.802 75.802-75.802s75.776 33.997 75.776 75.802c0 20.224 16.41 36.634 36.634 36.634s36.634-16.41 36.634-36.634c-0.051-82.202-66.918-149.043-149.069-149.043z" />
<glyph unicode="&#xe92f;" glyph-name="javothemes-subtract" d="M928.922-38.4h-833.843c-38.298 0-69.478 31.181-69.478 69.478v833.843c0 38.298 31.181 69.478 69.478 69.478h833.843c38.298 0 69.478-31.181 69.478-69.478v-833.843c0-38.298-31.181-69.478-69.478-69.478zM118.246 54.246h787.507v787.507h-787.507v-787.507zM697.293 401.664h-370.586c-25.574 0-46.336 20.736-46.336 46.336s20.762 46.336 46.336 46.336h370.611c25.574 0 46.336-20.736 46.336-46.336s-20.787-46.336-46.362-46.336z" />
<glyph unicode="&#xe930;" glyph-name="javothemes-sun" d="M296.781 316.109c-7.475 0-15.002 2.278-21.504 7.040-48.922 35.917-76.954 90.701-76.954 150.246 0 103.757 86.81 188.16 193.485 188.16 87.757 0 164.71-57.574 187.085-139.981 5.274-19.379-6.17-39.373-25.549-44.646-19.43-5.274-39.373 6.221-44.621 25.574-13.824 50.842-61.875 86.349-116.915 86.349-66.586 0-120.755-51.789-120.755-115.43 0-36.173 17.229-69.555 47.283-91.648 16.179-11.904 19.661-34.662 7.757-50.816-7.091-9.728-18.125-14.848-29.312-14.848zM839.629 52.608l-470.246 0.666c-91.418 8.038-152.858 82.381-152.858 184.883 0 99.046 89.011 179.661 198.374 179.661 11.187 0 22.195-0.794 33.050-2.458 17.024 98.33 102.835 173.338 205.747 173.338 115.123 0 208.819-93.952 208.819-209.434 0-3.942-0.102-7.936-0.333-11.853 40.422-7.654 76.467-30.31 100.122-63.693 22.963-28.262 36.096-65.229 36.096-101.658 0-81.178-67.891-145.408-157.952-149.402l-0.819-0.051zM374.323 125.85l463.642-0.512c42.65 2.202 87.706 29.67 87.706 76.698 0 19.994-7.603 41.088-20.326 56.422l-1.92 2.534c-15.59 22.554-43.213 36.557-72.038 36.557-1.869 0-3.738 0.077-5.632 0.154l-2.56 0.077-51.558-4.25 13.491 49.971c3.072 11.443 4.659 23.475 4.659 35.738 0 75.366-61.056 136.704-136.090 136.704s-136.090-61.21-136.090-136.499c0-2.842 0.077-5.709 0.256-8.499l3.43-57.242-53.248 21.299c-16.717 6.707-34.586 10.061-53.146 10.061-69.299 0-125.645-47.923-125.645-106.906 0-47.949 22.323-105.907 85.069-112.307zM371.072 697.933c-20.070 0-36.352 16.282-36.352 36.352v72.755c0 20.070 16.282 36.352 36.352 36.352 20.096 0 36.378-16.282 36.378-36.352v-72.73c0-20.096-16.282-36.378-36.378-36.378zM134.707 425.19h-72.755c-20.070 0-36.352 16.282-36.352 36.352 0 20.096 16.282 36.378 36.352 36.378h72.73c20.096 0 36.352-16.282 36.352-36.378 0.026-20.070-16.256-36.352-36.326-36.352zM579.021 624.051c-9.293 0-18.611 3.558-25.702 10.65-14.208 14.182-14.208 37.248 0 51.43l56.858 56.858c14.208 14.208 37.222 14.208 51.43 0 14.208-14.182 14.208-37.248 0-51.43l-56.858-56.858c-7.091-7.091-16.435-10.65-25.728-10.65zM199.501 624.051c-9.318 0-18.611 3.558-25.702 10.65l-56.858 56.858c-14.208 14.182-14.208 37.248 0 51.43 14.208 14.208 37.222 14.208 51.43 0l56.858-56.858c14.208-14.182 14.208-37.248 0-51.43-7.117-7.091-16.435-10.65-25.728-10.65z" />
<glyph unicode="&#xe931;" glyph-name="javothemes-support" d="M512.205-38.835c-268.339 0-486.605 218.317-486.605 486.63s218.266 486.605 486.605 486.605c268.314 0 486.579-218.291 486.579-486.605 0.026-268.314-218.266-486.63-486.579-486.63zM512.205 843.392c-218.138 0-395.622-177.485-395.622-395.622s177.485-395.622 395.622-395.622c218.138 0 395.597 177.485 395.597 395.622s-177.459 395.622-395.597 395.622zM444.442 363.648c0 23.194 3.763 44.006 11.341 62.464s23.194 34.534 46.848 48.282c7.117 4.275 15.872 9.114 26.266 14.541s20.557 11.955 30.515 19.533c9.933 7.552 18.33 16.435 25.165 26.624 6.861 10.163 10.291 21.862 10.291 35.123 0 9.958-1.894 18.688-5.683 26.266-3.789 7.552-8.755 13.926-14.925 19.149-6.118 5.197-13.363 9.114-21.632 11.725-8.294 2.586-16.666 3.891-25.19 3.891-10.419 0-19.866-1.792-28.39-5.325-8.525-3.558-16.205-8.038-23.066-13.491s-13.030-11.622-18.458-18.458c-5.427-6.861-10.061-13.363-13.85-19.507l-61.747 42.598c6.144 14.643 14.31 27.674 24.499 39.014 10.163 11.366 21.76 20.941 34.765 28.749 13.005 7.834 27.085 13.722 42.214 17.741 15.155 4.019 30.771 6.042 46.874 6.042 17.946 0 35.712-2.611 53.222-7.808 17.51-5.222 33.254-13.491 47.206-24.858 13.926-11.366 25.318-25.907 34.074-43.648s13.133-38.938 13.133-63.514c0-15.13-1.766-28.518-5.325-40.090-3.558-11.622-8.653-22.144-15.283-31.59-6.63-9.472-14.413-17.997-23.398-25.549-9.011-7.578-19.174-14.925-30.515-22.016-9.472-5.683-18.918-11.11-28.39-16.333s-18.074-10.982-25.907-17.382c-7.834-6.374-14.208-13.722-19.174-21.99-4.992-8.294-7.475-18.355-7.475-30.182h-78.003zM445.85 198.272v97.946h78.797v-97.946h-78.797z" />
<glyph unicode="&#xe932;" glyph-name="javothemes-tag" d="M539.776-37.734c-0.102 0-0.205 0-0.307 0-12.749 0.102-24.909 5.274-33.792 14.387l-436.070 447.309c-18.381 18.842-18.022 49.024 0.845 67.379 18.867 18.432 48.998 17.997 67.379-0.819l402.381-412.774 337.024 337.024-402.662 414.285c-18.355 18.867-17.894 49.024 0.973 67.379 18.867 18.33 49.024 17.92 67.379-0.973l435.379-448c18.15-18.688 17.946-48.461-0.486-66.893l-404.352-404.352c-8.934-8.909-21.069-13.952-33.69-13.952zM103.654 409.6c-25.088 0-46.106 19.635-47.514 44.979l-23.834 428.851c-0.742 13.542 4.301 26.778 13.901 36.352s22.861 14.541 36.326 13.875l428.851-23.808c26.24-1.485 46.413-23.962 44.928-50.253-1.485-26.266-24.013-46.080-50.227-44.928l-375.654 20.89 20.864-375.68c1.459-26.291-18.662-48.768-44.928-50.227-0.896-0.051-1.818-0.051-2.714-0.051zM368.922 511.437c-18.534 0-35.891 7.142-48.819 20.070-12.979 12.928-20.096 30.336-20.096 48.896 0.026 19.2 7.962 38.093 21.837 51.942 27.11 27.213 75.955 28.621 102.246 2.278 14.387-14.387 21.299-34.637 19.021-55.578-1.92-17.101-9.779-33.408-22.195-45.824-13.875-13.85-32.794-21.786-51.994-21.786zM368.922 606.746c-5.965 0-11.469-2.176-15.437-6.144-8.192-8.166-6.733-23.475 3.2-33.382 5.171-5.171 11.904-8.115 18.509-8.115 6.784 0 11.392 3.174 14.029 5.837 3.917 3.891 6.093 9.37 6.093 15.386 0.026 6.81-2.842 13.594-7.834 18.56-5.018 4.966-11.776 7.859-18.56 7.859z" />
<glyph unicode="&#xe933;" glyph-name="javothemes-umbralla" d="M894.95 397.594h-765.926c-29.67 0-49.51 23.68-57.472 43.93l-2.176 5.504-0.512 5.914c-1.101 13.21-1.613 30.925-1.613 42.624-0.026 241.971 199.501 438.835 444.749 438.835s444.774-197.683 444.774-440.704c0-13.338-0.614-28.416-1.638-40.32l-0.512-5.914-2.176-5.504c-8.064-20.48-27.981-44.365-57.498-44.365zM148.736 478.822h726.528c0.179 5.043 0.282 10.112 0.282 14.874 0 198.221-163.072 359.501-363.546 359.501s-363.571-160.41-363.571-357.606c0-5.274 0.128-11.11 0.307-16.768zM532.301 93.030c-22.426 0-40.602 18.202-40.602 40.627v284.237c0 22.426 18.176 40.602 40.602 40.602s40.627-18.176 40.627-40.602v-284.262c0-22.4-18.202-40.602-40.627-40.602zM405.274-38.938c-92.57 0-167.859 72.422-167.859 161.408 0 22.426 18.176 40.627 40.602 40.627s40.602-18.202 40.602-40.627c0-44.211 38.861-80.179 86.63-80.179 47.795 0 86.656 35.968 86.656 80.179 0 22.426 18.176 40.627 40.602 40.627s40.602-18.202 40.602-40.627c0.026-88.986-75.29-161.408-167.834-161.408z" />
<glyph unicode="&#xe934;" glyph-name="javothemes-write" d="M773.478-38.4h-705.971c-22.938 0-41.523 18.611-41.523 41.523v705.971c0 22.938 18.611 41.523 41.523 41.523h290.688c22.938 0 41.549-18.586 41.549-41.523s-18.611-41.523-41.549-41.523h-249.165v-622.925h622.925v290.714c0 22.938 18.586 41.523 41.523 41.523s41.523-18.611 41.523-41.523v-332.237c0-22.912-18.611-41.523-41.523-41.523zM341.299 234.496c-10.906 0-21.453 4.275-29.312 12.134-9.446 9.344-13.798 22.682-11.75 35.789l32.512 208.41c1.357 8.678 5.427 16.717 11.622 22.912l406.989 408.55c16.179 16.256 42.496 16.307 58.726 0.102l175.718-175.053c7.834-7.782 12.237-18.33 12.237-29.338 0.026-11.034-4.326-21.606-12.109-29.389l-406.989-408.55c-6.17-6.195-14.208-10.291-22.861-11.674l-208.256-33.382c-2.176-0.307-4.352-0.512-6.528-0.512zM412.749 464.717l-21.606-138.675 138.496 22.195 368.128 369.587-116.864 116.429-368.154-369.536zM837.069 568.909c-10.624 0-21.248 4.070-29.338 12.186l-161.536 161.51c-16.23 16.23-16.23 42.496 0 58.726s42.496 16.23 58.726 0l161.51-161.51c16.23-16.205 16.23-42.522 0-58.701-8.115-8.141-18.739-12.211-29.363-12.211z" />
</font>
</defs>
</svg>
